<?xml version="1.0" encoding="UTF-8"?><svg id="Layer_2" xmlns="http://www.w3.org/2000/svg" viewBox="0 0 524.73 596.67"><defs><style>.cls-1{fill:#fff;}</style></defs><g id="Layer_1-2"><path class="cls-1" d="m345.37,596.23l179.37-38.87s-64.7-437.93-65.23-440.83c-.53-2.87-2.87-4.8-5.27-4.8s-47.97-3.37-47.97-3.37c0,0-31.63-31.63-35.47-35-.9-.97-1.9-1.43-2.87-1.93l-22.57,524.8h0Zm14.87-525.73c-.53,0-1.43.47-1.9.47-.53,0-7.23,1.97-17.77,5.27-10.6-30.63-29.3-58.93-62.37-58.93h-2.87c-9.63-12.03-21.1-17.3-31.2-17.3-77.2,0-114.2,96.4-125.67,145.3-29.73,9.17-51.27,15.87-53.77,16.83-16.8,5.27-17.23,5.73-19.13,21.6C43.67,195.2,0,533.37,0,533.37l337.23,63.3,23-526.17h0Zm-87.83,23.47v3.4c-18.63,5.77-39.27,12-59.43,18.23,11.53-44.1,33.07-65.73,51.77-73.9,4.87,12.5,7.67,29.27,7.67,52.27h0Zm-30.67-73.33c3.33,0,6.7.93,10.1,3.4-24.4,11.47-51.3,40.73-62.37,99.27-15.62,5-31.3,9.8-47.03,14.4,12.97-44.63,44.17-117.07,99.3-117.07Zm13.4,260.4s-20.13-10.5-44.07-10.5c-36,0-37.43,22.53-37.43,28.3,0,30.7,80.6,42.67,80.6,115.1,0,57.07-36,93.53-84.9,93.53-58.53,0-88.27-36.47-88.27-36.47l15.83-51.8s30.73,26.4,56.57,26.4c12.75.52,23.5-9.4,24.01-22.15.01-.28.02-.57.02-.85,0-40.3-66.2-42.27-66.2-108.4,0-55.63,39.83-109.83,120.9-109.83,31.2,0,46.5,9.07,46.5,9.07l-23.57,67.6h0Zm30.73-242.7c17.27,2,28.33,21.6,35.47,43.7-8.6,2.9-18.23,5.77-28.77,9.1v-6.23c0-18.7-2.4-34.07-6.7-46.57Z"/></g></svg>