<?xml version="1.0" encoding="UTF-8"?><svg id="Layer_2" xmlns="http://www.w3.org/2000/svg" viewBox="0 0 702.5 477.5"><defs><style>.cls-1{fill:#fff;}</style></defs><g id="meta-icon"><path class="cls-1" d="m75,312.5c0-115,57.5-235,125-235,37.5,0,67.5,22.5,115,90-45,70-72.5,112.5-72.5,112.5-60,95-80,115-112.5,115-32.5,2.5-55-27.5-55-82.5m392.5-42.5l-42.5-70c-10-17.5-22.5-35-32.5-50,37.5-57.5,67.5-87.5,105-87.5,75,0,135,112.5,135,252.5,0,52.5-17.5,82.5-52.5,82.5s-47.5-22.5-112.5-127.5m-107.5-170C305,27.5,257.5,0,202.5,0,87.5,0,0,152.5,0,312.5c0,100,47.5,162.5,127.5,162.5,57.5,0,97.5-27.5,172.5-157.5,0,0,30-55,52.5-92.5,7.5,12.5,15,25,22.5,40l35,60c67.5,115,105,152.5,172.5,152.5,77.5,0,120-65,120-167.5C700,140,610,0,502.5,0c-57.5,0-102.5,45-142.5,100"/></g></svg>